<svg width="174" height="29" viewBox="0 0 174 29" fill="none" xmlns="http://www.w3.org/2000/svg">
<path d="M0.642578 25.5068L0.901367 25.1699C1.31152 24.6133 1.54753 23.7995 1.60938 22.7285L1.70215 20.7168H4.82227V25.5068H5.36914V27.5527H4.78809V26H0.818359V27.5527H0.256836L0.261719 25.5068H0.642578ZM1.31641 25.5068H4.23633V21.2637H2.25879L2.19531 22.6357C2.13672 23.8955 1.84375 24.8525 1.31641 25.5068ZM9.83203 26C9.77344 25.834 9.736 25.5882 9.71973 25.2627C9.51465 25.5296 9.2526 25.7363 8.93359 25.8828C8.61784 26.026 8.28255 26.0977 7.92773 26.0977C7.41992 26.0977 7.00814 25.9561 6.69238 25.6729C6.37988 25.3896 6.22363 25.0316 6.22363 24.5986C6.22363 24.0843 6.43685 23.6774 6.86328 23.3779C7.29297 23.0785 7.8903 22.9287 8.65527 22.9287H9.71484V22.3281C9.71484 21.9505 9.59766 21.6543 9.36328 21.4395C9.13216 21.2214 8.79362 21.1123 8.34766 21.1123C7.94076 21.1123 7.60384 21.2165 7.33691 21.4248C7.06999 21.6331 6.93652 21.8838 6.93652 22.1768L6.35059 22.1719C6.35059 21.752 6.5459 21.389 6.93652 21.083C7.32715 20.7738 7.80729 20.6191 8.37695 20.6191C8.96615 20.6191 9.43001 20.7673 9.76855 21.0635C10.1104 21.3564 10.2861 21.7666 10.2959 22.2939V24.7939C10.2959 25.305 10.3496 25.6875 10.457 25.9414V26H9.83203ZM7.99609 25.5801C8.38672 25.5801 8.73503 25.4857 9.04102 25.2969C9.35026 25.1081 9.57487 24.8558 9.71484 24.54V23.3779H8.66992C8.08724 23.3844 7.63151 23.4919 7.30273 23.7002C6.97396 23.9053 6.80957 24.1885 6.80957 24.5498C6.80957 24.846 6.91862 25.0918 7.13672 25.2871C7.35807 25.4824 7.64453 25.5801 7.99609 25.5801ZM15.916 26H15.3301V23.5781H12.4834V26H11.8975V20.7168H12.4834V23.085H15.3301V20.7168H15.916V26ZM21.541 26H20.9551V23.5781H18.1084V26H17.5225V20.7168H18.1084V23.085H20.9551V20.7168H21.541V26ZM23.7529 22.6357H25.2764C25.667 22.6357 26.0088 22.7074 26.3018 22.8506C26.598 22.9906 26.821 23.1859 26.9707 23.4365C27.1237 23.6872 27.2002 23.9785 27.2002 24.3105C27.2002 24.8216 27.0244 25.2318 26.6729 25.541C26.3245 25.847 25.8525 26 25.2568 26H23.1719V20.7168H23.7529V22.6357ZM23.7529 23.1338V25.5068H25.2666C25.6865 25.5068 26.0153 25.401 26.2529 25.1895C26.4938 24.9779 26.6143 24.6882 26.6143 24.3203C26.6143 23.9688 26.4971 23.6855 26.2627 23.4707C26.0316 23.2526 25.7142 23.1403 25.3105 23.1338H23.7529ZM28.9922 26H28.4062V20.7168H28.9922V26ZM32.6641 26.0977C32.2148 26.0977 31.8079 25.987 31.4434 25.7656C31.082 25.5443 30.8005 25.2367 30.5986 24.8428C30.3968 24.4456 30.2959 24.0013 30.2959 23.5098V23.2998C30.2959 22.792 30.3936 22.3346 30.5889 21.9277C30.7874 21.5208 31.0625 21.2018 31.4141 20.9707C31.7656 20.7363 32.1465 20.6191 32.5566 20.6191C33.1979 20.6191 33.7057 20.8389 34.0801 21.2783C34.4577 21.7145 34.6465 22.3118 34.6465 23.0703V23.3975H30.877V23.5098C30.877 24.1087 31.0479 24.6084 31.3896 25.0088C31.7347 25.4059 32.1676 25.6045 32.6885 25.6045C33.001 25.6045 33.276 25.5475 33.5137 25.4336C33.7546 25.3197 33.9727 25.1374 34.168 24.8867L34.5342 25.165C34.1045 25.7868 33.4811 26.0977 32.6641 26.0977ZM32.5566 21.1172C32.1172 21.1172 31.7461 21.2783 31.4434 21.6006C31.1439 21.9229 30.9616 22.3558 30.8965 22.8994H34.0654V22.8359C34.0492 22.3281 33.9043 21.9147 33.6309 21.5957C33.3574 21.2767 32.9993 21.1172 32.5566 21.1172ZM38.8164 27.3184H38.3232V18.8906H38.8164V27.3184ZM44.8076 25.6045C45.2145 25.6045 45.5547 25.4906 45.8281 25.2627C46.1048 25.0316 46.2546 24.7337 46.2773 24.3691H46.8389C46.8226 24.6914 46.7217 24.986 46.5361 25.2529C46.3506 25.5166 46.1032 25.7233 45.7939 25.873C45.488 26.0228 45.1592 26.0977 44.8076 26.0977C44.1143 26.0977 43.5641 25.8568 43.1572 25.375C42.7536 24.8932 42.5518 24.2454 42.5518 23.4316V23.2559C42.5518 22.735 42.6429 22.2744 42.8252 21.874C43.0075 21.4736 43.2679 21.1644 43.6064 20.9463C43.9482 20.7282 44.347 20.6191 44.8027 20.6191C45.3822 20.6191 45.859 20.7917 46.2334 21.1367C46.611 21.4818 46.8128 21.9359 46.8389 22.499H46.2773C46.2513 22.0856 46.1016 21.752 45.8281 21.498C45.5579 21.2441 45.2161 21.1172 44.8027 21.1172C44.2754 21.1172 43.8652 21.3076 43.5723 21.6885C43.2826 22.0693 43.1377 22.6032 43.1377 23.29V23.4609C43.1377 24.1348 43.2826 24.6605 43.5723 25.0381C43.8652 25.4157 44.277 25.6045 44.8076 25.6045ZM51.8047 21.2148H49.8809V26H49.2949V21.2148H47.4443V20.7168H51.8047V21.2148ZM56.0234 26C55.9648 25.834 55.9274 25.5882 55.9111 25.2627C55.7061 25.5296 55.444 25.7363 55.125 25.8828C54.8092 26.026 54.474 26.0977 54.1191 26.0977C53.6113 26.0977 53.1995 25.9561 52.8838 25.6729C52.5713 25.3896 52.415 25.0316 52.415 24.5986C52.415 24.0843 52.6283 23.6774 53.0547 23.3779C53.4844 23.0785 54.0817 22.9287 54.8467 22.9287H55.9062V22.3281C55.9062 21.9505 55.7891 21.6543 55.5547 21.4395C55.3236 21.2214 54.985 21.1123 54.5391 21.1123C54.1322 21.1123 53.7952 21.2165 53.5283 21.4248C53.2614 21.6331 53.1279 21.8838 53.1279 22.1768L52.542 22.1719C52.542 21.752 52.7373 21.389 53.1279 21.083C53.5186 20.7738 53.9987 20.6191 54.5684 20.6191C55.1576 20.6191 55.6214 20.7673 55.96 21.0635C56.3018 21.3564 56.4775 21.7666 56.4873 22.2939V24.7939C56.4873 25.305 56.541 25.6875 56.6484 25.9414V26H56.0234ZM54.1875 25.5801C54.5781 25.5801 54.9264 25.4857 55.2324 25.2969C55.5417 25.1081 55.7663 24.8558 55.9062 24.54V23.3779H54.8613C54.2786 23.3844 53.8229 23.4919 53.4941 23.7002C53.1654 23.9053 53.001 24.1885 53.001 24.5498C53.001 24.846 53.11 25.0918 53.3281 25.2871C53.5495 25.4824 53.8359 25.5801 54.1875 25.5801ZM61.7656 21.2148H59.8418V26H59.2559V21.2148H57.4053V20.7168H61.7656V21.2148ZM66.1992 20.7168H66.7852V26H66.1992V21.6592L63.3477 26H62.7666V20.7168H63.3477V25.0625L66.1992 20.7168ZM70.3057 25.6045C70.7126 25.6045 71.0527 25.4906 71.3262 25.2627C71.6029 25.0316 71.7526 24.7337 71.7754 24.3691H72.3369C72.3206 24.6914 72.2197 24.986 72.0342 25.2529C71.8486 25.5166 71.6012 25.7233 71.292 25.873C70.986 26.0228 70.6572 26.0977 70.3057 26.0977C69.6123 26.0977 69.0622 25.8568 68.6553 25.375C68.2516 24.8932 68.0498 24.2454 68.0498 23.4316V23.2559C68.0498 22.735 68.141 22.2744 68.3232 21.874C68.5055 21.4736 68.766 21.1644 69.1045 20.9463C69.4463 20.7282 69.8451 20.6191 70.3008 20.6191C70.8802 20.6191 71.3571 20.7917 71.7314 21.1367C72.109 21.4818 72.3109 21.9359 72.3369 22.499H71.7754C71.7493 22.0856 71.5996 21.752 71.3262 21.498C71.056 21.2441 70.7142 21.1172 70.3008 21.1172C69.7734 21.1172 69.3633 21.3076 69.0703 21.6885C68.7806 22.0693 68.6357 22.6032 68.6357 23.29V23.4609C68.6357 24.1348 68.7806 24.6605 69.0703 25.0381C69.3633 25.4157 69.7751 25.6045 70.3057 25.6045ZM77.3027 21.2148H75.3789V26H74.793V21.2148H72.9424V20.7168H77.3027V21.2148ZM81.7363 20.7168H82.3223V26H81.7363V21.6592L78.8848 26H78.3037V20.7168H78.8848V25.0625L81.7363 20.7168ZM85.3252 23.5781H84.5146V26H83.9238V20.7168H84.5146V23.0605H85.3154L87.2539 20.7168H87.9912L85.8232 23.2803L88.2305 26H87.459L85.3252 23.5781ZM92.4102 26C92.3516 25.834 92.3141 25.5882 92.2979 25.2627C92.0928 25.5296 91.8307 25.7363 91.5117 25.8828C91.196 26.026 90.8607 26.0977 90.5059 26.0977C89.998 26.0977 89.5863 25.9561 89.2705 25.6729C88.958 25.3896 88.8018 25.0316 88.8018 24.5986C88.8018 24.0843 89.015 23.6774 89.4414 23.3779C89.8711 23.0785 90.4684 22.9287 91.2334 22.9287H92.293V22.3281C92.293 21.9505 92.1758 21.6543 91.9414 21.4395C91.7103 21.2214 91.3717 21.1123 90.9258 21.1123C90.5189 21.1123 90.182 21.2165 89.915 21.4248C89.6481 21.6331 89.5146 21.8838 89.5146 22.1768L88.9287 22.1719C88.9287 21.752 89.124 21.389 89.5146 21.083C89.9053 20.7738 90.3854 20.6191 90.9551 20.6191C91.5443 20.6191 92.0081 20.7673 92.3467 21.0635C92.6885 21.3564 92.8643 21.7666 92.874 22.2939V24.7939C92.874 25.305 92.9277 25.6875 93.0352 25.9414V26H92.4102ZM90.5742 25.5801C90.9648 25.5801 91.3132 25.4857 91.6191 25.2969C91.9284 25.1081 92.153 24.8558 92.293 24.54V23.3779H91.248C90.6654 23.3844 90.2096 23.4919 89.8809 23.7002C89.5521 23.9053 89.3877 24.1885 89.3877 24.5498C89.3877 24.846 89.4967 25.0918 89.7148 25.2871C89.9362 25.4824 90.2227 25.5801 90.5742 25.5801ZM97.4688 27.3184H96.9756V18.8906H97.4688V27.3184ZM104.432 25.209L106.531 20.7168H107.254V26H106.668V21.6641L104.637 26H104.222L102.151 21.5664V26H101.57V20.7168H102.337L104.432 25.209ZM108.499 23.2803C108.499 22.7725 108.597 22.3151 108.792 21.9082C108.991 21.5013 109.269 21.1855 109.627 20.9609C109.988 20.7331 110.397 20.6191 110.853 20.6191C111.556 20.6191 112.125 20.8665 112.562 21.3613C112.998 21.8529 113.216 22.5055 113.216 23.3193V23.4414C113.216 23.9525 113.117 24.4131 112.918 24.8232C112.723 25.2301 112.446 25.5443 112.088 25.7656C111.73 25.987 111.321 26.0977 110.862 26.0977C110.162 26.0977 109.593 25.8519 109.153 25.3604C108.717 24.8656 108.499 24.2113 108.499 23.3975V23.2803ZM109.085 23.4414C109.085 24.0729 109.248 24.5921 109.573 24.999C109.902 25.4027 110.332 25.6045 110.862 25.6045C111.39 25.6045 111.816 25.4027 112.142 24.999C112.47 24.5921 112.635 24.0566 112.635 23.3926V23.2803C112.635 22.8766 112.56 22.5072 112.41 22.1719C112.26 21.8366 112.05 21.5778 111.78 21.3955C111.51 21.21 111.201 21.1172 110.853 21.1172C110.332 21.1172 109.907 21.3223 109.578 21.7324C109.249 22.1393 109.085 22.6732 109.085 23.334V23.4414ZM113.953 25.5068L114.212 25.1699C114.622 24.6133 114.858 23.7995 114.92 22.7285L115.013 20.7168H118.133V25.5068H118.68V27.5527H118.099V26H114.129V27.5527H113.567L113.572 25.5068H113.953ZM114.627 25.5068H117.547V21.2637H115.569L115.506 22.6357C115.447 23.8955 115.154 24.8525 114.627 25.5068ZM121.854 26.0977C121.404 26.0977 120.997 25.987 120.633 25.7656C120.271 25.5443 119.99 25.2367 119.788 24.8428C119.586 24.4456 119.485 24.0013 119.485 23.5098V23.2998C119.485 22.792 119.583 22.3346 119.778 21.9277C119.977 21.5208 120.252 21.2018 120.604 20.9707C120.955 20.7363 121.336 20.6191 121.746 20.6191C122.387 20.6191 122.895 20.8389 123.27 21.2783C123.647 21.7145 123.836 22.3118 123.836 23.0703V23.3975H120.066V23.5098C120.066 24.1087 120.237 24.6084 120.579 25.0088C120.924 25.4059 121.357 25.6045 121.878 25.6045C122.19 25.6045 122.465 25.5475 122.703 25.4336C122.944 25.3197 123.162 25.1374 123.357 24.8867L123.724 25.165C123.294 25.7868 122.671 26.0977 121.854 26.0977ZM121.746 21.1172C121.307 21.1172 120.936 21.2783 120.633 21.6006C120.333 21.9229 120.151 22.3558 120.086 22.8994H123.255V22.8359C123.239 22.3281 123.094 21.9147 122.82 21.5957C122.547 21.2767 122.189 21.1172 121.746 21.1172ZM129.036 20.7168V26H128.45V21.2197H126.287L126.194 23.1973C126.155 23.9297 126.082 24.4896 125.975 24.877C125.867 25.2611 125.708 25.5443 125.496 25.7266C125.285 25.9089 125.003 26 124.651 26H124.427V25.4824L124.607 25.4727C124.943 25.4661 125.184 25.3034 125.33 24.9844C125.477 24.6654 125.573 24.0957 125.618 23.2754L125.726 20.7168H129.036ZM134.08 20.7168H134.666V26H134.08V21.6592L131.229 26H130.647V20.7168H131.229V25.0625L134.08 20.7168ZM140.481 23.4121C140.481 24.2357 140.299 24.89 139.935 25.375C139.57 25.8568 139.082 26.0977 138.47 26.0977C137.747 26.0977 137.194 25.8438 136.81 25.3359V28.0312H136.229V20.7168H136.771L136.8 21.4639C137.181 20.9007 137.732 20.6191 138.455 20.6191C139.087 20.6191 139.581 20.8584 139.939 21.3369C140.301 21.8154 140.481 22.4795 140.481 23.3291V23.4121ZM139.896 23.3096C139.896 22.6357 139.757 22.1035 139.48 21.7129C139.204 21.3223 138.818 21.127 138.323 21.127C137.965 21.127 137.658 21.2132 137.4 21.3857C137.143 21.5583 136.946 21.8089 136.81 22.1377V24.6719C136.95 24.9746 137.15 25.2057 137.41 25.3652C137.671 25.5247 137.978 25.6045 138.333 25.6045C138.825 25.6045 139.207 25.4092 139.48 25.0186C139.757 24.6247 139.896 24.055 139.896 23.3096ZM141.458 23.2803C141.458 22.7725 141.556 22.3151 141.751 21.9082C141.95 21.5013 142.228 21.1855 142.586 20.9609C142.947 20.7331 143.356 20.6191 143.812 20.6191C144.515 20.6191 145.084 20.8665 145.521 21.3613C145.957 21.8529 146.175 22.5055 146.175 23.3193V23.4414C146.175 23.9525 146.076 24.4131 145.877 24.8232C145.682 25.2301 145.405 25.5443 145.047 25.7656C144.689 25.987 144.28 26.0977 143.821 26.0977C143.121 26.0977 142.552 25.8519 142.112 25.3604C141.676 24.8656 141.458 24.2113 141.458 23.3975V23.2803ZM142.044 23.4414C142.044 24.0729 142.207 24.5921 142.532 24.999C142.861 25.4027 143.291 25.6045 143.821 25.6045C144.349 25.6045 144.775 25.4027 145.101 24.999C145.429 24.5921 145.594 24.0566 145.594 23.3926V23.2803C145.594 22.8766 145.519 22.5072 145.369 22.1719C145.219 21.8366 145.009 21.5778 144.739 21.3955C144.469 21.21 144.16 21.1172 143.812 21.1172C143.291 21.1172 142.866 21.3223 142.537 21.7324C142.208 22.1393 142.044 22.6732 142.044 23.334V23.4414ZM147.449 26V20.7168H149.388C150.058 20.7168 150.573 20.8372 150.931 21.0781C151.289 21.3158 151.468 21.6657 151.468 22.1279C151.468 22.3916 151.388 22.6276 151.229 22.8359C151.069 23.041 150.836 23.1908 150.53 23.2852C150.875 23.3503 151.152 23.4984 151.36 23.7295C151.572 23.9606 151.678 24.2292 151.678 24.5352C151.678 25.0007 151.505 25.362 151.16 25.6191C150.818 25.873 150.333 26 149.705 26H147.449ZM148.03 23.5684V25.5117H149.725C150.164 25.5117 150.503 25.4271 150.74 25.2578C150.978 25.0885 151.097 24.8444 151.097 24.5254C151.097 24.2324 150.978 23.9997 150.74 23.8271C150.503 23.6546 150.164 23.5684 149.725 23.5684H148.03ZM148.03 23.0801H149.51C150.428 23.0671 150.887 22.7546 150.887 22.1426C150.887 21.8203 150.76 21.5859 150.506 21.4395C150.255 21.2897 149.882 21.2148 149.388 21.2148H148.03V23.0801ZM156.316 26C156.258 25.834 156.22 25.5882 156.204 25.2627C155.999 25.5296 155.737 25.7363 155.418 25.8828C155.102 26.026 154.767 26.0977 154.412 26.0977C153.904 26.0977 153.493 25.9561 153.177 25.6729C152.864 25.3896 152.708 25.0316 152.708 24.5986C152.708 24.0843 152.921 23.6774 153.348 23.3779C153.777 23.0785 154.375 22.9287 155.14 22.9287H156.199V22.3281C156.199 21.9505 156.082 21.6543 155.848 21.4395C155.617 21.2214 155.278 21.1123 154.832 21.1123C154.425 21.1123 154.088 21.2165 153.821 21.4248C153.554 21.6331 153.421 21.8838 153.421 22.1768L152.835 22.1719C152.835 21.752 153.03 21.389 153.421 21.083C153.812 20.7738 154.292 20.6191 154.861 20.6191C155.451 20.6191 155.914 20.7673 156.253 21.0635C156.595 21.3564 156.771 21.7666 156.78 22.2939V24.7939C156.78 25.305 156.834 25.6875 156.941 25.9414V26H156.316ZM154.48 25.5801C154.871 25.5801 155.219 25.4857 155.525 25.2969C155.835 25.1081 156.059 24.8558 156.199 24.54V23.3779H155.154C154.572 23.3844 154.116 23.4919 153.787 23.7002C153.458 23.9053 153.294 24.1885 153.294 24.5498C153.294 24.846 153.403 25.0918 153.621 25.2871C153.842 25.4824 154.129 25.5801 154.48 25.5801ZM162.4 26H161.814V23.5781H158.968V26H158.382V20.7168H158.968V23.085H161.814V20.7168H162.4V26ZM167.439 20.7168H168.025V26H167.439V21.6592L164.588 26H164.007V20.7168H164.588V25.0625L167.439 20.7168ZM171.639 26.0977C171.189 26.0977 170.783 25.987 170.418 25.7656C170.057 25.5443 169.775 25.2367 169.573 24.8428C169.371 24.4456 169.271 24.0013 169.271 23.5098V23.2998C169.271 22.792 169.368 22.3346 169.563 21.9277C169.762 21.5208 170.037 21.2018 170.389 20.9707C170.74 20.7363 171.121 20.6191 171.531 20.6191C172.173 20.6191 172.68 20.8389 173.055 21.2783C173.432 21.7145 173.621 22.3118 173.621 23.0703V23.3975H169.852V23.5098C169.852 24.1087 170.022 24.6084 170.364 25.0088C170.709 25.4059 171.142 25.6045 171.663 25.6045C171.976 25.6045 172.251 25.5475 172.488 25.4336C172.729 25.3197 172.947 25.1374 173.143 24.8867L173.509 25.165C173.079 25.7868 172.456 26.0977 171.639 26.0977ZM171.531 21.1172C171.092 21.1172 170.721 21.2783 170.418 21.6006C170.118 21.9229 169.936 22.3558 169.871 22.8994H173.04V22.8359C173.024 22.3281 172.879 21.9147 172.605 21.5957C172.332 21.2767 171.974 21.1172 171.531 21.1172Z" fill="black"/>
<path d="M50.332 7.19141H46.8281V9.81641H50.9238V11H45.3457V2.46875H50.8828V3.66406H46.8281V6.01953H50.332V7.19141ZM55.1309 11V2.46875H57.6504C58.4043 2.46875 59.0723 2.63672 59.6543 2.97266C60.2402 3.30859 60.6934 3.78516 61.0137 4.40234C61.334 5.01953 61.4941 5.72656 61.4941 6.52344V6.95117C61.4941 7.75977 61.332 8.4707 61.0078 9.08398C60.6875 9.69727 60.2285 10.1699 59.6309 10.502C59.0371 10.834 58.3555 11 57.5859 11H55.1309ZM56.6133 3.66406V9.81641H57.5801C58.3574 9.81641 58.9531 9.57422 59.3672 9.08984C59.7852 8.60156 59.998 7.90234 60.0059 6.99219V6.51758C60.0059 5.5918 59.8047 4.88477 59.4023 4.39648C59 3.9082 58.416 3.66406 57.6504 3.66406H56.6133ZM72.2109 2.46875V8.16992C72.2109 9.07617 71.9199 9.79492 71.3379 10.3262C70.7598 10.8535 69.9883 11.1172 69.0234 11.1172C68.0469 11.1172 67.2715 10.8574 66.6973 10.3379C66.123 9.81445 65.8359 9.08984 65.8359 8.16406V2.46875H67.3125V8.17578C67.3125 8.74609 67.457 9.18164 67.7461 9.48242C68.0352 9.7832 68.4609 9.93359 69.0234 9.93359C70.1641 9.93359 70.7344 9.33203 70.7344 8.12891V2.46875H72.2109Z" fill="#FF1053"/>
<path d="M79.8047 9.14258L81.9727 2.46875H83.6016L80.5312 11H79.0957L76.0371 2.46875H77.6602L79.8047 9.14258ZM89.1328 11H87.6562V2.46875H89.1328V11ZM98.4141 8.80273C98.4141 8.42773 98.2812 8.13867 98.0156 7.93555C97.7539 7.73242 97.2793 7.52734 96.5918 7.32031C95.9043 7.11328 95.3574 6.88281 94.9512 6.62891C94.1738 6.14062 93.7852 5.50391 93.7852 4.71875C93.7852 4.03125 94.0645 3.46484 94.623 3.01953C95.1855 2.57422 95.9141 2.35156 96.8086 2.35156C97.4023 2.35156 97.9316 2.46094 98.3965 2.67969C98.8613 2.89844 99.2266 3.21094 99.4922 3.61719C99.7578 4.01953 99.8906 4.4668 99.8906 4.95898H98.4141C98.4141 4.51367 98.2734 4.16602 97.9922 3.91602C97.7148 3.66211 97.3164 3.53516 96.7969 3.53516C96.3125 3.53516 95.9355 3.63867 95.666 3.8457C95.4004 4.05273 95.2676 4.3418 95.2676 4.71289C95.2676 5.02539 95.4121 5.28711 95.7012 5.49805C95.9902 5.70508 96.4668 5.9082 97.1309 6.10742C97.7949 6.30273 98.3281 6.52734 98.7305 6.78125C99.1328 7.03125 99.4277 7.32031 99.6152 7.64844C99.8027 7.97266 99.8965 8.35352 99.8965 8.79102C99.8965 9.50195 99.623 10.0684 99.0762 10.4902C98.5332 10.9082 97.7949 11.1172 96.8613 11.1172C96.2441 11.1172 95.6758 11.0039 95.1562 10.7773C94.6406 10.5469 94.2383 10.2305 93.9492 9.82812C93.6641 9.42578 93.5215 8.95703 93.5215 8.42188H95.0039C95.0039 8.90625 95.1641 9.28125 95.4844 9.54688C95.8047 9.8125 96.2637 9.94531 96.8613 9.94531C97.377 9.94531 97.7637 9.8418 98.0215 9.63477C98.2832 9.42383 98.4141 9.14648 98.4141 8.80273ZM105.762 11H104.285V2.46875H105.762V11ZM117.393 6.95703C117.393 7.79297 117.248 8.52734 116.959 9.16016C116.67 9.78906 116.256 10.2734 115.717 10.6133C115.182 10.9492 114.564 11.1172 113.865 11.1172C113.174 11.1172 112.557 10.9492 112.014 10.6133C111.475 10.2734 111.057 9.79102 110.76 9.16602C110.467 8.54102 110.318 7.82031 110.314 7.00391V6.52344C110.314 5.69141 110.461 4.95703 110.754 4.32031C111.051 3.68359 111.467 3.19727 112.002 2.86133C112.541 2.52148 113.158 2.35156 113.854 2.35156C114.549 2.35156 115.164 2.51953 115.699 2.85547C116.238 3.1875 116.654 3.66797 116.947 4.29688C117.24 4.92188 117.389 5.65039 117.393 6.48242V6.95703ZM115.91 6.51172C115.91 5.56641 115.73 4.8418 115.371 4.33789C115.016 3.83398 114.51 3.58203 113.854 3.58203C113.213 3.58203 112.711 3.83398 112.348 4.33789C111.988 4.83789 111.805 5.54688 111.797 6.46484V6.95703C111.797 7.89453 111.979 8.61914 112.342 9.13086C112.709 9.64258 113.217 9.89844 113.865 9.89844C114.521 9.89844 115.025 9.64844 115.377 9.14844C115.732 8.64844 115.91 7.91797 115.91 6.95703V6.51172ZM128.637 11H127.154L123.352 4.94727V11H121.869V2.46875H123.352L127.166 8.54492V2.46875H128.637V11Z" fill="#1F3BB3"/>
</svg>
