<svg width="342" height="436" viewBox="0 0 342 436" fill="none" xmlns="http://www.w3.org/2000/svg">
<path d="M340.303 293.725C336.586 286.332 334.785 278.467 335.045 270.139C335.163 266.361 335.082 262.571 334.903 258.797C334.785 256.32 333.492 254.661 330.775 254.738C325.981 254.877 323.321 251.9 320.438 248.569C313.142 240.139 307.339 231.383 308.453 219.44C308.787 215.845 307.461 212.351 303.171 210.887C301.926 210.46 300.584 208.691 300.316 207.337C299.62 203.795 297.16 203.218 294.301 202.803C283.382 201.213 272.467 199.586 261.552 197.972C260.113 199.627 258.673 201.282 257.234 202.937C257.234 202.937 257.25 202.929 257.262 202.925C257.27 202.921 257.282 202.917 257.282 202.917C255.204 205.784 253.122 208.651 251.04 211.518C250.511 212.128 249.987 212.734 249.458 213.344C248.336 215.8 249.116 217.671 250.275 219.452C250.804 220.261 251.41 221.05 251.951 221.863C252.476 222.648 252.431 223.815 252.646 224.804C251.695 224.458 250.646 224.267 249.816 223.734C248.1 222.628 246.249 220.102 244.899 220.371C241.496 221.058 238.324 222.937 235.111 224.442C234.737 224.616 234.647 225.438 234.464 225.975C233.533 228.699 232.614 231.428 231.691 234.157C231.288 234.088 230.886 234.019 230.479 233.949C230.934 236.141 231.394 238.333 231.849 240.521C231.394 238.329 230.934 236.137 230.479 233.949C229.218 232.538 227.962 231.127 226.701 229.712C226.701 229.708 226.664 229.57 226.64 229.484C226.636 229.472 226.632 229.46 226.632 229.448C226.628 229.431 226.624 229.419 226.624 229.419C224.928 223.649 219.694 225.385 215.904 224.82C212.781 224.356 211.215 223.356 210.792 220.379C210.796 220.379 210.804 220.383 210.808 220.383C210.304 219.484 209.8 218.586 209.296 217.687C209.296 217.687 209.239 217.654 209.182 217.626C209.129 217.597 209.08 217.569 209.08 217.569C208.791 217.325 208.507 217.085 208.218 216.841C207.88 216.735 207.539 216.625 207.201 216.52C206.766 216.329 206.331 216.133 205.9 215.942C205.9 215.942 205.79 215.841 205.733 215.788C205.725 215.78 205.701 215.759 205.701 215.759C204.912 216.418 203.395 217.142 203.448 217.728C203.802 221.855 203.989 226.105 205.196 230.017C205.323 230.428 205.432 230.83 205.522 231.221C205.88 232.782 205.92 234.173 205.522 235.483C205.225 236.467 204.68 237.41 203.838 238.346C203.598 238.789 203.358 239.232 203.118 239.675C203.005 239.948 202.895 240.22 202.781 240.493C202.277 240.794 201.776 241.099 201.272 241.4C201.272 241.4 201.288 241.424 201.309 241.452C201.325 241.481 201.345 241.505 201.345 241.505C201.963 243.583 202.622 245.653 203.216 247.735C203.415 248.431 203.602 249.126 203.781 249.826C204.225 251.562 204.391 253.372 204.68 255.145C204.363 255.751 204.042 256.361 203.724 256.967C202.708 256.117 201.695 255.267 200.532 254.299C199.548 258.98 195.441 257.138 192.203 257.504C190.837 257.658 189.475 257.829 188.112 257.996C187.201 258.63 186.311 259.049 185.441 259.289C184.566 259.533 183.712 259.602 182.883 259.533C180.121 259.301 177.62 257.565 175.449 255.853C171.175 252.489 166.47 252.55 161.675 252.083C162.305 253.12 162.936 254.157 163.566 255.194C162.403 258.435 161.24 261.672 160.077 264.913L160.052 264.974C159.727 265.214 159.398 265.458 159.072 265.698C158.999 265.73 158.926 265.755 158.849 265.775C158.775 265.796 158.698 265.812 158.617 265.82C156.832 267.687 155.05 269.553 153.265 271.42C152.903 271.891 152.541 272.363 152.179 272.835C152.09 272.945 152.017 273.055 151.939 273.164C151.895 273.229 151.842 273.295 151.801 273.36C151.773 273.4 151.756 273.441 151.728 273.482C151.647 273.616 151.565 273.746 151.496 273.876C151.48 273.905 151.472 273.933 151.46 273.961C151.305 274.279 151.183 274.592 151.106 274.913C150.825 276.072 151.045 277.292 151.634 278.817C153.887 284.628 154.233 290.273 147.161 294.486C146.148 295.092 145.404 295.828 144.88 296.67C144.689 296.975 144.534 297.292 144.396 297.617C143.708 299.281 143.684 301.233 144.013 303.25C145.172 302.859 146.336 302.469 147.495 302.078C146.336 302.469 145.177 302.859 144.013 303.25C143.607 303.738 143.2 304.23 142.793 304.718C142.468 305.433 142.147 306.145 141.822 306.861C144.148 307.324 146.478 307.788 148.804 308.252C148.771 310.773 148.613 313.298 148.739 315.807C148.841 317.808 149.288 319.789 149.585 321.781C150.012 321.846 150.435 321.916 150.862 321.981C151.972 322.217 153.086 322.452 154.196 322.688C154.558 322.103 154.92 321.517 155.278 320.931C155.388 320.622 155.498 320.317 155.603 320.008C155.494 320.317 155.388 320.622 155.278 320.931C154.916 321.517 154.554 322.103 154.196 322.688C154.188 323.888 154.176 325.088 154.168 326.287C153.757 326.548 153.342 326.812 152.932 327.072C153.086 327.418 153.245 327.768 153.399 328.113C153.656 327.503 153.912 326.897 154.168 326.287C153.912 326.897 153.656 327.503 153.399 328.113C150.414 331.631 146.27 330.025 142.606 330.553C141.72 331.135 140.833 331.72 139.947 332.302C139.382 332.33 138.816 332.355 138.251 332.383C138.137 332.408 138.019 332.424 137.905 332.428C137.775 332.432 137.645 332.428 137.515 332.412C137.796 334.693 137.36 337.479 138.523 339.146C140.443 341.899 138.772 342.948 137.267 344.433C137.584 344.701 137.861 345.092 138.231 345.214C141.049 346.145 144.709 346.36 142.7 351.09C142.61 351.305 144.375 352.672 145.425 352.944C146.462 353.217 147.507 353.469 148.552 353.713C151.281 354.347 154.034 354.908 156.771 355.514C157.499 355.112 158.226 354.705 158.954 354.298C159.552 353.965 160.15 353.632 160.748 353.298C161.984 353.221 163.22 353.148 164.457 353.07C165.713 349.402 168.263 351.85 170.292 351.834C170.292 351.834 170.292 351.834 170.296 351.834C170.296 351.675 170.357 351.541 170.471 351.427C170.805 351.501 171.142 351.57 171.48 351.643C171.256 350.968 171.036 350.297 170.813 349.622C170.235 349.15 169.658 348.682 169.076 348.211C169.654 348.678 170.235 349.15 170.813 349.618C171.036 350.293 171.256 350.964 171.48 351.639C172.342 352.188 173.208 352.737 174.07 353.286L174.115 353.278C174.42 353.359 174.725 353.444 175.034 353.526C175.327 354.022 175.55 354.88 175.925 354.953C179.316 355.624 183.403 357.617 186.002 356.425C186.713 356.1 187.409 355.864 188.096 355.697C188.783 355.531 189.463 355.433 190.129 355.392C190.382 355.376 190.63 355.368 190.878 355.368C190.882 355.368 190.886 355.368 190.894 355.368C191.142 355.368 191.39 355.372 191.638 355.384C195.091 355.539 198.369 356.824 201.789 356.808C203.033 356.612 204.29 356.234 205.53 356.128C204.294 356.234 203.033 356.612 201.793 356.808C201.825 357.454 201.854 358.101 201.882 358.747L201.939 358.939C199.426 359.618 198.108 361.086 198.714 363.823C198.674 363.871 198.641 363.92 198.613 363.969C198.527 364.119 198.495 364.29 198.507 364.473C197.327 365.779 195.213 367.113 198.617 368.288C199.227 368.202 199.837 368.121 200.443 368.036C200.577 368.243 200.768 368.349 201.016 368.361C200.825 368.251 200.634 368.145 200.443 368.036C200.634 368.145 200.825 368.251 201.016 368.361C201.008 368.837 201.004 369.313 200.996 369.792C201.077 370.553 201.166 371.317 201.26 372.078C201.166 371.317 201.077 370.553 200.996 369.792C200.609 371.216 200.06 372.619 199.869 374.071C199.556 376.417 199.471 378.796 199.292 381.163C199.052 381.553 198.812 381.94 198.572 382.33C197.828 383.713 197.083 385.099 196.339 386.482C197.828 386.673 199.316 386.86 200.804 387.055C201.227 387.112 201.646 387.198 202.065 387.267C202.069 387.356 202.094 387.426 202.138 387.482C202.183 387.539 202.248 387.58 202.329 387.6C202.565 387.836 202.805 388.072 203.041 388.312L203.257 388.467C204.021 389.561 204.786 390.65 205.55 391.744C205.55 391.744 205.672 391.944 205.672 391.94C205.615 393.761 205.562 395.583 205.506 397.409C206.697 397.865 207.889 398.32 209.076 398.776C207.941 396.498 206.807 394.221 205.672 391.944C206.807 394.221 207.941 396.498 209.076 398.776L209.129 398.824C209.519 399.687 209.91 400.549 210.3 401.411C211.016 401.395 211.732 401.378 212.447 401.362C213.997 399.861 217.872 403.546 217.998 398.873C223.468 398.41 228.803 398.552 233.696 401.602C234.241 401.944 235.424 401.26 236.306 401.057C236.86 398.263 237.413 395.469 237.966 392.676C237.413 395.469 236.86 398.263 236.306 401.053C237.685 400.26 239.064 399.467 240.442 398.674C242.87 397.21 247.047 399.194 248.563 401.923C249.564 403.721 251.304 406.01 253.037 406.327C257.774 407.194 262.679 407.177 267.522 407.344C267.856 407.356 268.588 405.998 268.519 405.343C268.388 404.111 267.799 402.928 267.412 401.72C266.55 399.032 266.924 396.319 270.072 396.303C274.09 396.279 273.098 394.241 272.508 392.123C272.162 390.882 271.548 389.711 271.056 388.511C269.913 387.885 267.815 388.682 267.059 387.478C267.811 388.682 269.913 387.885 271.056 388.507C271.325 388.08 271.593 387.653 271.861 387.226C273.801 383.985 275.769 384.286 277.876 387.966C278.982 383.627 281.528 383.314 284.732 384.156C286.4 384.591 288.185 384.554 289.893 384.851C293.179 385.417 296.583 385.689 299.702 386.759C305.245 388.658 307.229 387.828 308.884 382.037C309.043 381.48 309.263 380.919 309.295 380.354C309.36 379.268 309.315 378.178 309.315 377.092C308.348 377.247 307.335 377.279 306.416 377.584C304.139 378.345 301.833 379.967 300.287 376.45C299.409 374.449 297.4 372.574 297.396 370.638C297.38 366.665 298.307 362.68 298.97 358.719C299.442 355.909 297.136 352.334 294.427 352.834C291.41 353.388 291.389 351.598 290.857 349.837C288.388 348.666 285.92 347.499 283.451 346.328C285.92 347.499 288.388 348.666 290.853 349.837C290.763 348.654 290.674 347.475 290.588 346.291C292.675 341.436 294.761 336.584 296.847 331.728C296.615 331.484 296.379 331.24 296.148 330.996C294.663 330.285 292.544 329.931 291.89 328.76C291.312 327.727 292.117 325.649 292.805 324.282C293.264 323.367 294.59 322.888 295.525 322.212C295.525 322.212 295.529 322.225 295.529 322.221C300.552 318.845 305.753 315.702 310.539 312.017C314.126 309.256 314.757 309.183 316.656 313.412C317.095 314.388 318.551 315.946 318.738 315.836C321.19 314.433 324.854 314.181 324.513 309.846C324.427 308.784 325.92 306.584 326.542 306.633C331.95 307.084 334.427 303.929 336.286 299.598C336.546 298.992 337.705 298.61 338.514 298.422C341.58 297.743 341.576 296.251 340.303 293.725Z" fill="#2FD1F7"/>
<path d="M205.672 391.96C205.672 391.964 205.55 391.765 205.55 391.765C204.786 390.671 204.021 389.581 203.257 388.487L203.041 388.332C202.801 388.092 202.565 387.856 202.329 387.621C202.244 387.596 202.183 387.556 202.138 387.503C202.094 387.446 202.069 387.373 202.065 387.287C201.646 387.214 201.227 387.129 200.804 387.076C199.316 386.881 197.828 386.693 196.339 386.502C197.083 385.116 197.828 383.733 198.572 382.35C198.812 381.96 199.052 381.574 199.292 381.183C199.471 378.816 199.556 376.437 199.869 374.091C200.064 372.643 200.609 371.24 200.996 369.813C201.004 369.337 201.008 368.861 201.016 368.381C200.768 368.373 200.577 368.263 200.443 368.056C199.833 368.141 199.227 368.227 198.617 368.308C195.213 367.137 197.327 365.803 198.507 364.494C198.491 364.311 198.527 364.144 198.613 363.989C198.641 363.94 198.674 363.892 198.714 363.843C198.108 361.106 199.426 359.638 201.939 358.959L201.882 358.768C201.854 358.121 201.825 357.474 201.793 356.828C198.373 356.84 195.095 355.559 191.642 355.405C191.394 355.392 191.146 355.388 190.898 355.388C190.894 355.388 190.89 355.388 190.882 355.388C190.634 355.388 190.382 355.396 190.134 355.413C189.463 355.453 188.787 355.551 188.1 355.718C187.413 355.884 186.714 356.12 186.006 356.446C183.403 357.637 179.316 355.64 175.929 354.973C175.55 354.9 175.331 354.042 175.038 353.546C174.733 353.465 174.424 353.379 174.119 353.298L174.074 353.306C174.217 355.063 174.363 356.82 174.505 358.577C175.571 359.638 176.64 360.699 177.706 361.761C176.64 360.699 175.571 359.638 174.501 358.581C174.363 356.824 174.217 355.067 174.074 353.31C173.212 352.761 172.346 352.212 171.484 351.663C171.146 351.59 170.813 351.521 170.475 351.448C170.361 351.557 170.3 351.692 170.3 351.854C170.3 351.854 170.3 351.854 170.296 351.854C168.267 351.875 165.717 349.422 164.461 353.091C163.224 353.168 161.992 353.241 160.756 353.318C160.158 353.652 159.556 353.985 158.959 354.319C158.231 354.725 157.503 355.128 156.775 355.535C156.783 355.97 156.791 356.409 156.799 356.848C155.482 362.692 154.164 368.532 152.85 374.376C152.708 374.38 152.509 374.327 152.432 374.4C150.227 376.417 148.328 379.532 145.77 380.227C145.498 380.301 145.246 380.386 145.01 380.476C144.892 380.52 144.778 380.569 144.668 380.618C141.496 382.049 141.773 385.112 140.679 387.6C140.667 388.113 140.659 388.625 140.646 389.138C140.659 388.625 140.667 388.113 140.675 387.6C138.397 387.889 136.128 388.182 133.859 388.471C132.541 391.809 130.602 394.554 127.413 396.1C126.958 396.319 126.478 396.519 125.97 396.685C127.035 397.836 127.56 398.853 127.454 399.812C127.348 400.768 126.608 401.667 125.144 402.57C123.932 403.318 122.83 405.148 122.696 406.583C122.261 411.122 122.045 415.677 121.818 420.235C121.744 421.756 121.667 423.273 121.582 424.79C128.036 425.144 134.493 425.485 140.947 425.855C143.208 425.986 145.461 426.185 147.722 426.356C147.397 424.184 147.344 421.927 146.677 419.865C145.681 416.791 146.917 415.705 149.715 415.786C153.192 415.884 156.681 415.998 160.13 416.388C167.625 417.242 173.513 420.748 177.694 427.173C178.446 428.328 180.207 428.824 181.5 429.625C181.98 428.43 182.801 427.254 182.875 426.034C183.037 423.306 182.415 420.707 186.022 419.255C191.15 417.193 194.103 413.009 195.042 407.503C195.197 406.974 195.351 406.441 195.506 405.912C198.836 403.086 202.167 400.26 205.497 397.433C205.562 395.604 205.615 393.782 205.672 391.96Z" fill="#0082D2"/>
<path d="M70.9763 289.285C75.6204 288.687 76.1491 293.054 78.5932 295.027C79.2926 295.592 81.3219 295.836 81.4276 295.612C83.0014 292.27 86.0636 293.128 88.6541 292.993C91.7732 292.835 95.7951 294.201 97.7959 292.713C99.7764 291.241 99.7317 287.04 100.573 284.035C101.952 283.782 103.327 283.53 104.705 283.274C104.705 283.274 104.754 283.246 104.811 283.217C104.835 283.205 104.864 283.189 104.888 283.176C104.929 283.152 104.965 283.136 104.965 283.136C105.62 283.172 106.275 283.209 106.93 283.242C111.826 284.706 116.718 286.17 121.61 287.638C121.891 287.312 122.464 286.922 122.411 286.674C121.191 281.119 124.912 278.366 128.609 275.588C128.784 275.12 128.955 274.653 129.13 274.181C129.126 273.591 129.126 273.002 129.126 272.42C129.126 272.42 129.126 272.42 129.126 272.416C128.914 272.018 128.703 271.615 128.491 271.212C128.544 270.842 128.601 270.472 128.654 270.102C128.654 270.102 128.723 270.078 128.788 270.053C128.841 270.037 128.886 270.017 128.886 270.017L129.044 270.208C129.504 269.923 129.959 269.639 130.419 269.354C130.419 269.354 130.504 269.354 130.59 269.354C130.675 269.354 130.764 269.354 130.764 269.354C131.216 268.898 131.671 268.447 132.123 267.996C133.265 266.938 134.404 265.885 135.543 264.828C135.884 263.774 136.226 262.717 136.568 261.664C136.511 260.761 136.454 259.858 136.397 258.955L136.478 258.943C135.665 258.858 134.851 258.776 134.038 258.691C133.664 258.732 133.29 258.776 132.912 258.821C132.058 258.842 131.204 258.858 130.346 258.878L130.402 258.898C127.511 258.89 124.624 258.882 121.732 258.874C121.431 258.89 121.106 258.89 120.756 258.87C121.082 258.87 121.407 258.87 121.732 258.874C123.656 258.756 124.583 257.8 123.863 255.312C123.542 254.21 123.485 253.034 123.31 251.892C123.318 251.896 123.322 251.904 123.331 251.908C122.838 251.237 122.35 250.562 121.858 249.891C121.822 249.7 121.773 249.517 121.716 249.33C121.118 247.833 120.52 246.337 119.923 244.84V244.844C119.333 244.263 118.739 243.685 118.15 243.104C116.682 242.522 115.218 241.94 113.749 241.363L113.766 241.371C113.774 241.375 113.782 241.379 113.782 241.379C112.867 241.07 111.952 240.761 111.037 240.456C109.935 240.09 108.833 239.724 107.731 239.358C107.41 238.415 107.088 237.471 106.763 236.528C106.499 235.751 106.23 234.97 105.966 234.193C105.348 231.977 104.73 229.765 104.111 227.557C103.717 225.784 103.302 224.015 102.92 222.237C102.765 221.53 102.619 220.818 102.477 220.107C102.428 219.863 102.395 219.61 102.367 219.362C102.347 219.175 102.334 218.984 102.322 218.797C102.29 218.228 102.281 217.654 102.241 217.089C101.472 217.077 100.704 217.065 99.935 217.057C98.4344 218.167 96.9297 219.277 95.4251 220.387C95.238 221.489 95.0509 222.591 94.8639 223.693C94.4531 224.063 94.0262 224.429 93.587 224.783C93.3674 224.958 93.1437 225.129 92.9159 225.296C92.4605 225.629 91.9928 225.938 91.513 226.215C91.273 226.353 91.029 226.483 90.785 226.601C90.297 226.841 89.7968 227.04 89.2885 227.187C87.2633 227.772 85.1202 227.516 83.0258 225.617C80.5574 226.243 78.0889 226.869 75.6204 227.496C74.6729 229.59 73.7335 231.688 72.7778 233.779C72.4037 234.596 71.7286 235.377 71.6554 236.219C71.1674 241.835 75.104 246.145 80.9193 246.507C84.4166 246.723 85.7627 248.728 84.7338 252.062C84.4004 253.148 84.2662 254.295 84.0425 255.413C84.2662 256.068 84.4858 256.727 84.7094 257.382C84.9087 259.948 86.2385 263.933 85.112 264.828C80.8908 268.175 79.6505 273.246 76.572 277.146C75.8726 278.032 74.9494 278.736 74.1483 279.545C72.4078 281.31 70.6794 283.091 68.947 284.864C69.6302 286.401 70.4964 289.35 70.9763 289.285Z" fill="#00AAE1"/>
<path d="M89.2803 227.166C89.7886 227.02 90.2848 226.821 90.7769 226.581C91.0209 226.463 91.2648 226.333 91.5048 226.194C91.9846 225.918 92.4523 225.605 92.9078 225.275C93.1355 225.109 93.3592 224.938 93.5788 224.763C94.022 224.413 94.445 224.043 94.8557 223.673C95.0428 222.571 95.2299 221.469 95.4169 220.367C96.9216 219.257 98.4222 218.146 99.9269 217.036C98.776 215.637 97.6211 214.238 96.4702 212.839C97.6251 214.238 98.776 215.637 99.9269 217.032C100.695 217.044 101.464 217.052 102.233 217.065C102.713 216.853 103.262 216.658 103.794 216.447C103.262 216.658 102.713 216.853 102.233 217.065C102.273 217.63 102.277 218.203 102.314 218.773C102.326 218.964 102.338 219.151 102.359 219.338C102.383 219.59 102.42 219.838 102.469 220.082C102.607 220.794 102.757 221.501 102.912 222.213C103.294 223.99 103.709 225.759 104.103 227.532C104.721 229.745 105.34 231.957 105.958 234.169C106.222 234.946 106.49 235.727 106.755 236.503C107.076 237.443 107.397 238.386 107.719 239.326C107.719 239.33 107.719 239.33 107.719 239.33C108.821 239.696 109.923 240.062 111.025 240.428C111.94 240.737 112.855 241.046 113.77 241.351C113.77 241.351 113.762 241.347 113.754 241.343L113.737 241.335C115.205 241.916 116.669 242.498 118.137 243.075C118.731 243.657 119.321 244.234 119.91 244.816V244.812C120.508 246.308 121.106 247.805 121.704 249.301C121.761 249.488 121.806 249.675 121.846 249.862C122.334 250.533 122.826 251.208 123.318 251.879C123.705 252.193 124.347 252.502 124.514 252.823C124.347 252.502 123.705 252.193 123.318 251.879C123.31 251.875 123.302 251.867 123.298 251.863C123.477 253.006 123.534 254.181 123.851 255.283C124.575 257.772 123.644 258.728 121.72 258.846C124.612 258.854 127.499 258.862 130.39 258.87C130.39 258.87 130.39 258.87 130.386 258.87L130.333 258.85C131.187 258.829 132.041 258.813 132.899 258.793C133.274 258.748 133.652 258.707 134.026 258.663C134.839 258.748 135.648 258.829 136.462 258.915L136.385 258.927C136.441 259.83 136.498 260.733 136.555 261.635C137.393 261.607 138.231 261.578 139.064 261.55L139.069 261.513C139.073 261.493 139.073 261.477 139.073 261.477C139.378 261.757 139.679 262.038 139.984 262.319C140.053 262.579 140.13 262.835 140.215 263.091C141.033 263.372 141.846 263.652 142.663 263.933C143.574 264.018 144.481 264.104 145.392 264.189C145.392 264.189 145.392 264.189 145.396 264.189C145.291 264.714 145.185 265.238 145.075 265.759L145.278 265.804C145.551 266.369 145.823 266.93 146.096 267.495C147.194 267.605 148.292 267.715 149.386 267.829C149.386 267.829 149.443 267.768 149.487 267.719L149.386 267.829C149.532 268.297 149.683 268.764 149.833 269.232C150.171 269.447 150.508 269.659 150.842 269.874C151.647 270.387 152.452 270.895 153.257 271.408C155.042 269.541 156.828 267.674 158.609 265.808C158.686 265.8 158.763 265.783 158.841 265.763C158.918 265.743 158.991 265.718 159.064 265.686C159.39 265.446 159.719 265.202 160.044 264.962L160.069 264.901C161.232 261.664 162.395 258.423 163.558 255.182C162.928 254.145 162.297 253.108 161.667 252.071C166.462 252.534 171.163 252.477 175.441 255.84C177.616 257.552 180.113 259.289 182.875 259.521C183.704 259.59 184.558 259.525 185.433 259.277C186.303 259.033 187.193 258.614 188.104 257.983C189.467 257.821 190.833 257.646 192.195 257.491C195.433 257.125 199.54 258.968 200.524 254.287C201.683 255.259 202.7 256.109 203.716 256.955C204.034 256.349 204.355 255.739 204.672 255.133C204.383 253.356 204.217 251.55 203.773 249.814C203.594 249.114 203.403 248.419 203.208 247.723C202.614 245.637 201.955 243.571 201.337 241.489C201.337 241.489 201.321 241.465 201.301 241.436C201.284 241.412 201.264 241.383 201.264 241.383C201.768 241.082 202.269 240.777 202.773 240.476C202.887 240.204 202.997 239.932 203.11 239.659C203.35 239.216 203.59 238.773 203.83 238.321C204.672 237.39 205.213 236.45 205.514 235.466C205.912 234.153 205.872 232.762 205.514 231.204C205.424 230.814 205.315 230.416 205.188 230.001C203.981 226.089 203.794 221.839 203.44 217.711C203.391 217.122 204.904 216.402 205.693 215.743C205.693 215.743 205.717 215.763 205.725 215.771C205.77 215.812 205.892 215.926 205.892 215.926C206.327 216.117 206.758 216.308 207.193 216.503C207.531 216.609 207.872 216.719 208.21 216.825C208.499 217.069 208.783 217.309 209.072 217.553C209.072 217.553 209.121 217.581 209.174 217.61L209.288 217.671C209.792 218.569 210.296 219.468 210.8 220.367C213.838 221.383 216.831 222.937 219.906 223.49C216.835 222.937 213.838 221.383 210.8 220.367C210.796 220.367 210.788 220.363 210.784 220.363C211.207 223.34 212.777 224.336 215.896 224.804C219.686 225.369 224.92 223.636 226.616 229.403C226.616 229.403 226.62 229.415 226.624 229.431C226.628 229.444 226.628 229.452 226.632 229.468L226.689 229.692C231.028 231.282 231.484 231.339 232.403 228.687C231.479 231.339 231.028 231.286 226.689 229.696C227.95 231.111 229.206 232.522 230.467 233.933C230.869 234.002 231.276 234.071 231.679 234.141C232.602 231.412 233.521 228.683 234.452 225.958C234.635 225.422 234.725 224.6 235.099 224.425C238.316 222.921 241.488 221.042 244.887 220.355C246.237 220.082 248.088 222.612 249.804 223.718C250.633 224.25 251.683 224.442 252.634 224.787C252.419 223.795 252.464 222.632 251.939 221.847C251.398 221.03 250.792 220.245 250.263 219.436C249.104 217.658 248.324 215.784 249.446 213.331C249.316 213.449 249.161 213.567 248.999 213.685C249.157 213.567 249.316 213.453 249.446 213.331C249.975 212.721 250.499 212.111 251.028 211.506C250.918 208.419 252.321 206.426 254.298 204.852C252.317 206.426 250.918 208.419 251.028 211.506C253.11 208.639 255.188 205.772 257.27 202.905L257.25 202.913C257.238 202.917 257.221 202.925 257.221 202.925C258.661 201.27 260.101 199.615 261.54 197.959C260.422 197.313 259.304 196.666 258.185 196.02C252.468 193.027 250.507 188.338 252.142 182.181C254.293 174.088 252.899 166.382 250.003 158.749C249.235 156.723 248.608 154.544 248.482 152.401C248.055 145.129 244.615 140.664 237.498 138.525C233.423 137.301 229.572 135.056 230.926 129.412C231.097 128.7 230.487 127.757 230.129 126.972C225.221 116.256 220.687 105.341 215.213 94.9183C212.22 89.2209 212.317 84.4222 214.957 78.8671C216.026 76.6101 216.534 73.2023 215.611 71.0347C210.902 59.9287 203.35 51.3887 191.703 47.0333C188.316 45.7645 184.591 44.8373 181.76 42.7511C173.383 36.586 165.416 29.8597 157.206 23.4629C150.012 17.8631 141.842 15.3377 132.696 16.3421C127.934 16.8667 123.152 17.2653 118.43 18.0339C110.805 19.2742 107.747 17.3751 105.474 10.1486C103.92 5.2076 101.179 1.0474 95.3356 0.705802C92.0456 0.514668 88.6947 0.677336 85.417 1.0596C81.7773 1.48254 81.1632 3.44674 82.5093 6.80987C83.282 8.73747 83.0705 11.0961 83.1193 13.2637C83.1681 15.3539 82.737 17.4767 82.9444 19.5426C83.3633 23.7475 84.014 27.9321 84.6809 32.1045C85.2909 35.9394 83.8269 38.5339 81.1754 41.4497C77.5358 45.4513 78.2474 52.2386 81.212 56.6835C82.0864 57.9929 82.1921 59.8595 82.4808 61.4984C82.676 62.6005 82.123 64.0807 82.672 64.8331C84.9249 67.9278 81.6065 73.2145 86.759 75.0729C86.8241 75.0973 86.8362 75.3454 86.8322 75.4877C86.7346 79.6927 86.9216 83.9342 86.4458 88.0985C85.9294 92.6328 85.0794 97.1793 83.8432 101.571C82.9404 104.776 81.1185 107.716 79.8172 110.819C78.1254 114.845 75.2015 118.956 75.3235 122.954C75.4333 126.48 75.5472 129.631 74.1401 132.828C73.8188 133.348 73.5016 133.869 73.1804 134.389C73.0014 134.613 73.0218 134.816 73.2454 134.995C73.2739 135.508 73.3024 136.02 73.3268 136.532C72.0539 139.456 69.5936 141.994 70.7282 145.695C70.9152 146.301 69.9433 147.594 69.191 148.09C67.1414 149.436 67.2024 150.876 68.1296 152.913C68.4956 153.722 67.7676 155.032 67.5358 156.113C62.8917 154.206 62.241 158.045 60.6754 160.737C60.3907 161.225 59.1382 161.054 58.4712 161.437C57.357 162.075 55.9214 162.685 55.3928 163.706C53.5465 167.268 54.3964 172.738 48.2273 173.169C47.784 173.202 47.4262 175.154 47.1171 176.239C46.137 179.684 45.6978 183.393 44.1037 186.52C42.595 189.48 43.0057 190.359 46.0882 190.595C48.756 190.798 50.4314 191.359 51.5538 194.706C52.6966 198.114 55.6652 201.823 58.8332 203.417C63.5058 205.772 68.825 206.837 72.6476 210.835C73.7782 211.392 74.9128 211.949 76.0433 212.506C75.4455 215.133 74.8477 217.756 74.254 220.383C73.7334 221.721 73.2088 223.055 72.6883 224.393H72.6924C73.6684 225.418 74.6444 226.451 75.6163 227.479C78.0848 226.853 80.5532 226.227 83.0217 225.601C85.112 227.492 87.2551 227.752 89.2803 227.166Z" fill="#1E3BB2"/>
<path d="M122.7 406.571C122.839 405.136 123.937 403.31 125.148 402.558C126.612 401.655 127.352 400.756 127.458 399.8C127.564 398.845 127.039 397.824 125.974 396.673C125.958 396.665 125.945 396.661 125.929 396.653C125.083 396.266 124.237 395.88 123.392 395.494C121.854 393.989 120.431 393.029 119.227 394.282C120.435 393.029 121.858 393.989 123.392 395.49C123.115 392.106 120.748 391.679 118.056 391.708C116.417 389.922 114.778 388.133 113.144 386.348C113.522 385.478 113.9 384.607 114.282 383.737C115.6 383.542 116.922 383.347 118.239 383.151C118.202 382.281 118.17 381.411 118.133 380.545C118.223 379.125 117.78 377.3 118.495 376.356C119.28 375.319 119.776 374.372 119.963 373.505C120.037 373.16 120.065 372.826 120.041 372.505C119.931 371.065 118.812 369.894 116.6 368.979C116.531 368.455 116.466 367.93 116.401 367.405C114.457 367.271 112.513 367.141 110.569 367.003C110.569 367.003 110.476 367.1 110.394 367.186C110.472 367.104 110.565 367.007 110.569 367.003C110.073 364.518 109.085 361.989 109.012 359.544C109.004 359.195 109.012 358.849 109.04 358.503C109.321 355.449 108.369 354.847 105.811 355.116C104.742 356.482 103.672 357.849 102.603 359.215C102.42 359.39 102.237 359.565 102.05 359.732C102.05 359.732 102.05 359.732 102.046 359.732C101.578 359.634 101.106 359.536 100.639 359.439C100.517 358.507 100.342 357.572 100.199 356.641C100.057 355.71 99.9472 354.774 99.9472 353.843C99.9472 353.237 99.9716 352.631 100.012 352.025C100.13 350.207 100.378 348.39 100.537 346.568C99.4064 347.064 98.2758 347.564 97.1453 348.06C97.0924 347.503 97.0396 346.95 96.9867 346.393C96.763 346.352 96.5394 346.328 96.3157 346.324C95.6854 345.856 95.051 345.388 94.4206 344.925C91.3259 342.997 87.4666 342.338 84.5305 340.142C84.3353 339.996 84.1442 339.841 83.9571 339.683C83.4976 339.288 83.0624 338.845 82.668 338.341C82.4687 338.089 82.2816 337.824 82.0986 337.544C81.3056 337.271 80.5167 336.999 79.7237 336.73C80.5248 337.609 81.326 338.491 82.1271 339.37L82.3142 339.479C82.5134 339.671 82.7086 339.866 82.8876 340.069C82.6842 339.886 82.4931 339.687 82.3142 339.479L82.1271 339.37C81.326 338.491 80.5248 337.609 79.7278 336.73L79.6139 336.621C78.7558 332.127 77.6741 331.765 72.8348 334.36C71.6229 335.689 70.407 337.019 69.1951 338.349C69.1504 337.316 69.1016 336.458 69.0162 335.742C68.9918 335.539 68.9633 335.352 68.9348 335.169C68.9064 334.998 68.8738 334.839 68.8372 334.689C68.8047 334.547 68.764 334.412 68.7234 334.286C68.089 332.375 66.5233 332.013 62.1232 331.261C61.993 329.272 61.8629 327.284 61.7328 325.295C61.2854 324.356 60.9601 322.741 60.3664 322.639C59.4595 322.481 58.15 323.132 57.3977 323.847C55.3928 325.738 53.7743 328.077 51.6312 329.772C50.5332 330.639 48.329 331.163 47.2026 330.626C46.1168 330.106 45.0106 327.881 45.2424 326.657C46.0192 322.599 42.8919 322.92 41.3994 323.709C39.0489 324.957 36.739 327.035 35.4784 329.345C34.4007 331.318 34.5146 333.632 31.2938 332.387C30.9684 332.261 29.6305 333.436 29.7078 333.798C30.9725 339.496 25.4988 345.677 31.0294 351.171C31.859 351.997 31.1352 354.242 31.4442 355.767C31.8509 357.775 31.0498 360.549 34.2909 361.069C34.5674 361.444 34.844 361.818 35.1205 362.192C35.1978 361.854 35.275 361.521 35.3482 361.187H35.3523C35.275 361.521 35.1978 361.854 35.1205 362.188C34.7504 362.806 34.1567 363.387 34.051 364.046C33.3312 368.507 31.2165 370.366 26.5846 368.678C26.0071 368.467 24.5553 369.87 23.9087 370.797C22.6643 372.578 21.7086 374.555 20.631 376.45C19.537 376.873 18.4472 377.295 17.3532 377.714C17.1011 377.93 16.853 378.141 16.6009 378.353C12.8311 380.024 9.16702 379.833 5.38909 378.154C4.61642 377.812 2.86369 378.503 2.24962 379.268C1.44036 380.276 0.578226 382.2 1.02149 383.086C2.90436 386.844 5.30369 390.337 7.39802 393.993C7.76809 394.636 7.87789 395.697 7.62169 396.384C4.93769 403.639 3.32322 410.557 7.20689 418.296C8.68716 421.244 7.89416 425.62 10.2569 428.812C10.3789 428.979 10.1552 429.369 10.1756 429.65C10.2528 430.63 10.265 432.427 10.4765 432.452C11.8348 432.614 13.5672 432.875 14.5676 432.2C18.374 429.633 21.9445 427.82 26.1779 431.451C26.9465 432.11 29.1059 432.334 29.7484 431.769C33.7012 428.267 37.6703 431.874 40.8708 432.594C43.9452 433.285 44.4535 432.659 45.4092 430.78C46.8854 427.881 49.3335 427.742 51.6271 428.999C53.8516 430.215 55.4701 432.549 57.7027 433.741C59.6628 434.786 62.3428 435.742 64.2541 435.189C65.5351 434.818 66.0353 431.74 66.8812 429.869C67.3244 428.885 67.6416 427.112 68.211 427.031C72.729 426.364 72.7819 423.566 72.1353 420.028C71.631 417.255 72.7372 415.38 75.9254 415.709C82.2613 416.364 88.585 417.104 94.7053 417.783C94.3108 420.178 94.0424 421.785 93.7781 423.387C95.4658 423.302 97.1494 423.2 98.837 423.139C100.248 423.086 101.667 422.952 103.066 423.07C109.244 423.594 115.417 424.196 121.59 424.77C121.675 423.253 121.749 421.732 121.826 420.215C122.045 415.664 122.265 411.11 122.7 406.571Z" fill="#1E3BB2"/>
<path d="M131.74 345.746C126.901 345.124 123.172 347.267 121.842 352.119C121.537 353.237 121.147 354.449 121.293 355.555C121.944 360.492 118.438 363.631 116.397 367.409C116.462 367.934 116.531 368.458 116.596 368.983C118.808 369.898 119.927 371.069 120.036 372.509C120.061 372.83 120.036 373.164 119.959 373.509C119.772 374.375 119.28 375.327 118.491 376.36C117.775 377.303 118.219 379.129 118.129 380.549C118.166 381.419 118.198 382.289 118.235 383.155C116.917 383.351 115.596 383.546 114.278 383.741C113.9 384.611 113.522 385.482 113.139 386.352C114.778 388.137 116.417 389.926 118.052 391.712C120.74 391.683 123.111 392.11 123.387 395.494C124.233 395.88 125.079 396.266 125.925 396.653C125.941 396.661 125.953 396.665 125.97 396.673C126.478 396.502 126.958 396.307 127.413 396.087C130.602 394.542 132.537 391.797 133.859 388.458C136.128 388.166 138.397 387.877 140.675 387.588C141.773 385.099 141.496 382.041 144.668 380.61C144.778 380.561 144.892 380.512 145.01 380.467C145.246 380.378 145.498 380.292 145.77 380.219C148.328 379.524 150.223 376.409 152.432 374.392C152.513 374.319 152.708 374.371 152.85 374.367C154.168 368.524 155.486 362.684 156.799 356.84C156.791 356.401 156.779 355.966 156.775 355.526C154.038 354.921 151.285 354.359 148.556 353.725C147.511 353.481 146.466 353.229 145.429 352.956C144.38 352.68 142.611 351.317 142.704 351.102C144.713 346.376 141.053 346.161 138.235 345.226C137.869 345.104 137.592 344.709 137.271 344.445C135.425 344.912 133.497 345.97 131.74 345.746Z" fill="#1E3BB2"/>
<path d="M100.557 345.441C99.7439 345.112 98.9305 344.783 98.1131 344.453C97.739 345.1 97.3649 345.746 96.9907 346.389C97.0436 346.946 97.0924 347.499 97.1453 348.056C98.2758 347.56 99.4063 347.06 100.537 346.564C100.541 346.19 100.549 345.815 100.557 345.441Z" fill="#1E3BB2"/>
<path d="M68.7152 334.286C68.7559 334.412 68.7966 334.547 68.8291 334.689C68.8657 334.839 68.8982 334.998 68.9267 335.169C68.9592 335.348 68.9836 335.539 69.008 335.742C69.0934 336.454 69.1422 337.316 69.187 338.349C70.3988 337.019 71.6148 335.689 72.8266 334.359C77.666 331.765 78.7477 332.127 79.6058 336.621L79.7196 336.73C80.5126 337.003 81.3016 337.275 82.0946 337.544C82.2735 337.824 82.4646 338.093 82.6639 338.341C83.0624 338.841 83.4935 339.284 83.953 339.683C84.1401 339.845 84.3312 339.996 84.5264 340.142C87.4626 342.338 91.3218 342.993 94.4166 344.925C95.0469 345.388 95.6813 345.856 96.3116 346.324C96.5353 346.328 96.763 346.352 96.9826 346.393C97.3568 345.746 97.7309 345.1 98.105 344.457C98.9184 344.786 99.7317 345.116 100.549 345.445C100.541 345.819 100.537 346.193 100.529 346.572C100.529 346.572 100.529 346.572 100.529 346.576C100.37 348.394 100.122 350.215 100.004 352.033C99.9635 352.639 99.9391 353.245 99.9391 353.851C99.935 354.782 100.049 355.718 100.191 356.649C100.334 357.58 100.508 358.515 100.63 359.447C101.098 359.544 101.57 359.642 102.037 359.74C102.037 359.74 102.037 359.74 102.042 359.74C102.229 359.573 102.412 359.398 102.595 359.223C103.664 357.857 104.734 356.49 105.799 355.124C107.41 352.192 109.024 349.256 110.638 346.324C110.248 346.267 109.89 346.246 109.561 346.259C109.89 346.246 110.252 346.267 110.643 346.324L110.687 346.328C110.667 346.328 110.643 346.324 110.643 346.324C109.028 349.256 107.418 352.192 105.803 355.124C108.361 354.855 109.309 355.457 109.032 358.511C109 358.857 108.991 359.203 109.004 359.552C109.073 361.997 110.065 364.526 110.561 367.011C112.505 367.145 114.449 367.279 116.393 367.413C118.43 363.635 121.94 360.496 121.289 355.559C121.143 354.457 121.533 353.241 121.838 352.123C123.168 347.271 126.901 345.128 131.736 345.75C133.497 345.978 135.421 344.921 137.271 344.449C138.776 342.965 140.447 341.915 138.528 339.162C137.365 337.495 137.8 334.713 137.519 332.428C136.99 331.533 136.458 330.634 135.929 329.74C136.458 330.634 136.99 331.529 137.519 332.428C137.649 332.448 137.779 332.452 137.91 332.444C138.027 332.44 138.141 332.424 138.255 332.399C138.82 332.371 139.386 332.342 139.951 332.318C140.838 331.736 141.724 331.151 142.611 330.569C146.051 329.41 149.495 328.251 152.936 327.088C153.347 326.828 153.761 326.564 154.172 326.303C154.184 325.104 154.192 323.904 154.201 322.704C153.09 322.469 151.976 322.233 150.866 321.997C150.439 321.932 150.012 321.863 149.589 321.798C149.296 319.809 148.845 317.824 148.743 315.824C148.617 313.31 148.772 310.785 148.808 308.268C146.482 307.804 144.152 307.341 141.826 306.877C142.151 306.161 142.472 305.45 142.798 304.734C142.733 302.009 142.668 299.289 142.602 296.564C142.602 296.247 142.607 295.929 142.607 295.616C142.607 295.934 142.602 296.247 142.602 296.564C142.668 299.289 142.733 302.009 142.798 304.734C143.204 304.246 143.611 303.758 144.018 303.266C143.688 301.249 143.713 299.297 144.4 297.633C144.534 297.308 144.693 296.987 144.884 296.686C145.408 295.848 146.153 295.108 147.165 294.502C154.233 290.285 153.892 284.644 151.639 278.833C151.049 277.308 150.829 276.088 151.11 274.929C151.187 274.608 151.305 274.295 151.464 273.978C151.476 273.949 151.488 273.921 151.5 273.892C151.569 273.762 151.651 273.628 151.732 273.498C151.757 273.457 151.777 273.416 151.805 273.376C151.846 273.311 151.899 273.246 151.944 273.181C152.021 273.071 152.094 272.961 152.184 272.851C152.545 272.379 152.907 271.908 153.269 271.436C152.464 270.924 151.659 270.415 150.858 269.903C150.52 269.687 150.183 269.476 149.849 269.26C149.699 268.793 149.548 268.329 149.402 267.857C148.308 267.743 147.21 267.634 146.112 267.524C145.84 266.959 145.567 266.397 145.295 265.832L145.091 265.787C145.197 265.267 145.303 264.742 145.408 264.218C145.408 264.218 145.408 264.218 145.404 264.218C144.493 264.132 143.583 264.047 142.676 263.961C141.858 263.681 141.045 263.4 140.228 263.12C140.142 262.863 140.065 262.607 139.996 262.347C139.691 262.066 139.39 261.786 139.085 261.505C139.085 261.505 139.081 261.525 139.081 261.542L139.077 261.578C138.239 261.607 137.401 261.635 136.568 261.664C136.226 262.721 135.884 263.774 135.543 264.832C134.404 265.889 133.261 266.942 132.123 268C131.671 268.451 131.216 268.906 130.764 269.358H130.59C130.504 269.358 130.419 269.358 130.419 269.358C129.959 269.643 129.5 269.927 129.04 270.212L128.882 270.021C128.882 270.021 128.833 270.037 128.784 270.057C128.719 270.082 128.65 270.106 128.65 270.106C128.597 270.476 128.54 270.846 128.487 271.216C128.699 271.619 128.914 272.022 129.121 272.42C129.121 272.42 129.121 272.42 129.121 272.424V272.428C129.121 273.014 129.126 273.599 129.126 274.189C128.951 274.657 128.776 275.128 128.605 275.596C124.908 278.374 121.187 281.131 122.407 286.682C122.464 286.934 121.887 287.324 121.606 287.646C116.714 286.182 111.822 284.718 106.926 283.25C106.271 283.213 105.616 283.18 104.961 283.144C104.961 283.144 104.929 283.164 104.884 283.185C104.86 283.197 104.835 283.213 104.807 283.225C104.75 283.254 104.701 283.282 104.701 283.282C103.327 283.534 101.948 283.786 100.569 284.043C99.7276 287.048 99.7724 291.249 97.7919 292.721C95.7911 294.209 91.7732 292.843 88.65 293.001C86.0596 293.132 82.9974 292.274 81.4236 295.62C81.3178 295.848 79.2886 295.6 78.5891 295.035C76.145 293.062 75.6204 288.695 70.9722 289.293C70.4924 289.354 69.6262 286.405 68.9389 284.852C67.6904 285.149 66.3769 285.291 65.2057 285.779C63.7092 286.401 62.2289 287.17 60.9235 288.121C59.7808 288.959 58.5364 289.972 57.9508 291.2C56.4949 294.254 54.1078 297.646 54.4941 300.586C54.8926 303.611 57.7881 306.625 60.224 308.988C63.1398 311.81 65.0227 316.381 62.5705 319.105C60.5372 321.362 61.013 323.107 61.7165 325.295C61.8466 327.283 61.9768 329.272 62.1069 331.261C66.5152 332.013 68.0808 332.375 68.7152 334.286Z" fill="#0082D2"/>
<path d="M142.615 330.561C146.275 330.033 150.423 331.643 153.408 328.121C153.253 327.776 153.095 327.426 152.94 327.08C149.5 328.243 146.059 329.402 142.615 330.561Z" fill="#0082D2"/>
</svg>
